PathFileType	4	(X/Y/Z)	C:/Users/beibeiliu/ov580/test_trc/User2\sequence.36_training_dense_right.trc
DataRate	CameraRate	NumFrames	NumMarkers	Units	OrigDataRate	OrigDataStartFrame	OrigNumFrames
120	120	24	19	mm	120	438	500
Frame#	Time	ThumbCMC			ThumbMCP			ThumbIP			ThumbTip			IndexMCP			IndexPIP			IndexTip			MiddleMCP			MiddlePIP			MiddleTip			RingMCP			RingPIP			RingTip			PinkyMCP			PinkyPIP			PinkyTip			BackHand1			BackHand2			BackHand3	
		X0	Y0	Z0	X1	Y1	Z1	X2	Y2	Z2	X3	Y3	Z3	X4	Y4	Z4	X5	Y5	Z5	X6	Y6	Z6	X7	Y7	Z7	X8	Y8	Z8	X9	Y9	Z9	X10	Y10	Z10	X11	Y11	Z11	X12	Y12	Z12	X13	Y13	Z13	X14	Y14	Z14	X15	Y15	Z15	X16	Y16	Z16	X17	Y17	Z17	X18	Y18	Z18	
437	3.64167	91.9389	-2.66192	64.0625	60.4649	11.0461	47.3974	30.7468	13.0412	30.4974	3.91784	-1.24874	22.0407	64.493	-43.1975	-1.08022	37.258	-35.3022	-22.7794	15.18	-14.9209	-16.7126	47.5649	-62.6383	2.97468	15.8538	-46.2291	-15.9132	-1.3411	-16.358	-0.121508	28.1014	-68.2598	15.8638	4.73447	-53.9765	6.8351	-4.12881	-21.8397	19.3988	17.892	-70.229	42.0036	-3.37949	-49.1989	29.561	-0.852661	-14.9701	41.031	67.5358	-70.1679	65.1191	86.9653	-66.9698	94.0875	99.7646	-48.2586	62.7442	
438	3.65	93.7518	-6.62418	64.9631	64.2861	10.4627	46.9059	32.576	12.9045	27.1343	8.90091	-2.37662	24.9366	64.9924	-45.5391	-4.48731	38.21	-38.9221	-20.5658	15.0324	-11.1705	-17.6302	45.0273	-62.9311	5.17185	15.9453	-48.4094	-14.007	-0.55943	-14.1089	0.140061	28.5433	-69.0711	20.1065	2.63085	-48.4583	7.27236	0.242442	-18.8553	18.7494	18.1962	-67.9464	42.4109	-4.87844	-44.7129	31.5227	-1.04377	-15.1077	42.9689	67.4923	-70.8891	64.2105	84.7656	-69.2873	93.6059	100.102	-49.3012	62.3557	
439	3.65833	96.0793	-6.19729	63.1488	65.5033	7.62222	44.1602	34.3413	11.7349	26.063	9.0675	0.850454	21.024	63.7987	-47.1303	-2.39312	38.2832	-38.0821	-23.7101	14.2037	-16.2826	-15.8175	42.6431	-63.7926	6.2006	15.2553	-47.2288	-13.5709	-1.79656	-13.5855	5.20257	24.6596	-68.2488	19.7149	4.48878	-48.3482	6.64931	-0.860783	-13.9814	25.0479	19.0432	-65.366	41.6197	-5.98458	-42.1167	32.2203	0.288889	-11.4166	43.1849	68.6061	-70.945	67.8649	87.0787	-69.4508	97.676	101.229	-48.92	59.0747	
440	3.66667	99.1774	-5.32483	63.2502	71.1215	10.6922	44.9253	38.2944	13.8041	25.9906	11.2314	2.56964	20.3536	65.225	-46.9608	-3.28686	40.2596	-40.8345	-23.1835	13.7946	-15.166	-15.7561	42.5021	-63.2113	4.36827	14.9705	-47.4866	-12.0576	-1.98962	-10.8032	5.8896	25.9701	-65.5134	18.926	3.07186	-48.7356	9.56279	3.01588	-11.9555	25.346	15.7836	-65.7307	41.8012	-5.30879	-40.5502	32.8384	0.224067	-15.7505	41.1424	67.1551	-70.546	66.9045	85.8405	-71.4112	94.9262	99.8451	-52.5775	60.4697	
441	3.675	96.8329	-8.97799	60.9192	70.564	7.67464	40.7795	39.6272	14.0551	22.0877	14.0695	2.77129	19.2313	64.6448	-48.6226	-1.37285	38.3395	-42.7948	-20.155	16.0684	-16.3994	-18.6595	42.1083	-61.1877	1.60775	10.7588	-45.2825	-8.7886	1.31617	-9.90198	2.05283	23.7978	-64.8824	19.8525	0.204144	-43.7795	10.4711	1.63984	-13.7868	25.05	14.1803	-66.0402	42.8329	-5.01298	-42.2579	32.4669	-0.202659	-12.2568	43.9277	67.5437	-70.8875	65.6146	86.9608	-69.8255	91.1506	101.853	-52.5971	61.3801	
442	3.68333	99.9815	-8.72937	62.6138	74.7208	10.5038	39.7264	45.1102	16.294	23.7474	15.4429	8.64236	15.7068	60.9093	-48.6378	-5.15773	34.8012	-40.6985	-21.1662	12.5509	-15.1978	-17.4404	41.1122	-60.1024	4.236	11.7493	-40.2225	-10.3095	0.93105	-8.15412	4.79353	25.6822	-62.9863	21.841	2.40718	-42.1047	10.8679	3.80537	-10.8952	25.7489	16.5133	-64.0846	45.1702	-4.96018	-41.1817	34.2131	-2.46153	-11.8021	44.9758	69.0619	-70.3357	67.1678	86.3988	-68.5044	95.8027	97.8355	-53.2839	60.4545	
443	3.69167	100.408	-8.00491	57.3593	76.1856	10.0192	37.9011	47.8603	19.3716	20.3975	18.8532	11.7315	14.0545	62.6452	-48.0118	-0.0654669	33.1004	-42.6986	-19.3181	13.4225	-13.0317	-18.7178	39.1502	-57.5155	3.67547	8.19537	-35.8504	-5.8493	0.844949	-5.5442	10.1891	21.533	-61.2408	22.8583	-0.434807	-38.2566	13.1379	4.45129	-7.37154	26.8542	12.8694	-64.0814	44.5638	-2.97809	-38.1795	33.4199	3.09697	-10.0739	47.1983	66.2374	-71.348	68.9448	85.0583	-71.423	92.5578	98.2378	-54.4438	60.9693	
444	3.7	104.274	-7.49776	57.9005	78.8034	10.5619	38.4392	52.0233	20.832	21.294	25.4813	17.1275	14.9527	56.5504	-50.1105	-1.55232	32.3493	-40.432	-22.0822	13.3744	-13.4546	-20.2835	34.7259	-56.0445	4.61171	7.28052	-32.1955	-4.49115	4.83114	1.86551	12.2207	17.6625	-59.5345	22.3533	-1.07018	-37.8781	15.8993	6.39878	-3.38557	34.8946	13.711	-62.0184	49.7571	-5.56004	-33.8184	36.9487	5.69577	-6.77017	51.0058	65.6046	-71.1979	64.0672	87.6721	-68.3933	94.0029	99.1584	-54.4836	61.2676	
445	3.70833	106.164	-8.57466	57.6345	82.254	11.3074	35.2761	53.5402	19.3959	16.7494	28.6315	20.0047	9.87195	57.064	-50.6881	-2.18579	36.3998	-42.5505	-21.3209	12.7172	-18.4931	-21.3864	33.1441	-54.6185	5.13549	8.06986	-31.1767	-3.64978	6.26556	2.57916	18.9529	19.8695	-56.0145	22.5718	-2.65085	-35.1982	19.8126	7.10117	-3.35087	32.568	12.6844	-59.3001	48.0535	-4.85085	-30.2737	37.5483	7.81177	-4.10605	51.2903	65.0054	-69.8907	68.731	83.4899	-69.5654	93.1487	100.565	-55.4761	62.8919	
446	3.71667	103.295	-12.6369	57.485	86.7477	12.2592	35.954	56.5655	21.5378	12.8793	32.6502	18.4499	9.77626	59.4217	-49.3434	0.203428	29.2546	-41.8882	-18.7247	11.9993	-18.9365	-19.8687	31.3184	-53.9533	5.91487	8.22626	-30.1016	-1.85869	11.0552	5.46312	19.1805	17.1419	-54.0891	23.3607	-1.80421	-32.9015	19.9975	9.52068	-2.50598	36.4856	9.1464	-56.9402	49.2077	-5.54045	-27.2331	42.0641	11.6634	-0.796678	55.1313	65.9456	-69.4045	69.9256	85.3904	-69.7315	93.6556	101.903	-54.4167	61.1867	
447	3.725	107.554	-9.47092	59.3024	83.9435	8.86293	33.4281	58.5204	17.6957	13.7087	30.9773	16.8711	5.02091	58.9321	-47.9818	-1.02514	32.2088	-41.2633	-18.2987	9.60455	-15.6703	-15.6553	32.8184	-53.4653	11.2311	8.23342	-26.7103	1.48731	13.8043	7.0672	24.3664	20.0195	-54.2534	26.0992	0.824903	-28.1037	20.7727	16.4472	1.17641	41.6306	11.4401	-55.1261	51.3498	-5.02669	-24.4435	45.3781	12.8549	-1.76067	56.2655	62.0401	-70.846	66.0841	83.4755	-68.1708	92.9906	98.0389	-54.5789	61.3359	
448	3.73333	104.083	-13.2713	60.2573	89.2814	10.2143	34.2292	61.1325	17.8245	16.0289	31.847	15.6592	4.13098	56.9182	-46.805	-0.190344	24.524	-35.4816	-14.1219	9.59238	-9.77042	-7.33248	29.6473	-51.2522	11.5127	7.32614	-21.9453	4.82081	17.4185	7.52271	33.1538	13.9881	-51.0449	26.4939	-1.72353	-21.4937	28.5442	17.4612	1.48114	48.0889	9.01585	-54.3517	53.2725	-3.19196	-22.8828	45.3587	15.8483	-1.77367	57.9112	65.4624	-70.5495	67.0945	85.77	-68.0937	96.0514	100.161	-54.5198	58.1406	
449	3.74167	103.001	-14.5978	59.0716	87.9251	7.26606	37.9153	63.9658	19.4806	13.3615	36.8659	18.8092	4.73966	52.9369	-45.1483	2.43618	25.2834	-30.7819	-13.5919	11.9093	-2.42329	-0.239828	31.0157	-46.6845	10.5755	6.64173	-17.2001	10.9198	24.1316	8.58651	36.6919	11.1317	-49.0985	30.9881	-0.351696	-17.374	30.399	17.7091	0.360238	51.7343	8.17985	-52.8714	55.3401	-4.3958	-22.4218	49.2235	17.2127	-2.97544	60.3843	63.1881	-69.7643	68.8486	80.9821	-69.1793	94.5146	99.1257	-54.5325	61.6903	
450	3.75	104.42	-11.463	59.2155	85.3684	7.65187	34.7405	58.8286	15.94	14.2733	34.3996	18.8932	4.1766	49.4216	-42.2882	-1.28212	23.199	-29.8921	-8.25815	16.3548	7.00051	6.07076	27.5137	-46.3002	15.1788	5.2142	-16.0206	13.7721	23.3733	6.2033	42.9446	15.1818	-46.2435	31.9296	-0.0204125	-15.3778	35.7522	24.0079	1.94999	54.0076	7.16492	-50.2003	54.9985	-2.29	-18.1973	53.2046	22.0508	-3.04427	70.4142	60.9767	-68.3275	69.1861	84.5392	-68.2295	97.0225	97.8665	-54.433	62.4408	
451	3.75833	102.267	-12.3078	59.9296	85.4396	8.53328	34.8194	59.7596	19.7595	14.2137	30.9155	18.8173	4.21454	46.6058	-41.5961	2.70404	19.564	-21.0084	-6.11906	19.0124	4.19455	13.1585	27.0904	-44.2609	15.6765	5.63109	-10.662	17.8522	30.2771	8.12026	44.946	8.78999	-44.0097	34.3636	0.214218	-12.8612	36.7086	28.7572	-0.225415	57.7162	5.85744	-46.5714	53.1185	-4.01406	-17.7617	56.8144	24.9752	-3.07065	71.3812	60.8253	-68.7871	70.8691	82.9557	-68.1896	97.9132	96.0421	-52.4302	61.0362	
452	3.76667	100.467	-12.2325	58.2644	84.9532	10.0659	36.5252	54.6214	16.2993	15.3449	28.7555	19.1685	5.45519	41.4998	-40.8478	2.76564	19.959	-20.3611	-4.9601	24.4143	7.2061	16.434	23.3327	-42.1813	14.5333	4.88489	-10.9051	18.1431	30.372	6.95307	47.9848	11.2193	-42.8099	32.4698	-0.976908	-15.3324	36.7274	25.0207	-0.406972	59.6715	4.11462	-46.0161	55.5326	-1.64363	-15.5866	57.625	24.5001	-3.28306	70.5407	60.5806	-69.8718	67.6902	84.0631	-66.6663	95.144	93.9578	-51.6454	57.2424	
453	3.775	99.4179	-12.1953	58.028	81.2319	8.67244	33.9932	55.5892	19.1613	14.6419	27.0585	16.9405	5.92046	44.1157	-37.5942	0.538335	18.467	-17.5208	-0.665416	27.2747	7.60106	22.9206	25	-40.227	14.1699	5.76872	-9.48257	19.351	29.734	7.79847	46.9801	9.90937	-43.591	37.6337	-1.40968	-11.6865	43.0291	23.6611	-0.156512	61.5016	2.39494	-46.4197	57.5116	-0.0112603	-12.0917	61.3182	25.4316	-2.91167	71.3388	56.4855	-69.237	67.8353	83.6213	-70.0162	96.3521	94.1906	-52.1277	56.228	
454	3.78333	102.539	-9.85743	61.2497	85.3945	11.513	35.3146	55.7494	17.649	14.378	30.7806	19.6068	7.99006	41.0175	-38.7816	3.7057	18.3711	-15.6024	-0.155183	25.9954	7.9348	21.8345	22.5558	-39.4148	16.0004	5.09218	-10.0666	21.8348	28.6674	8.31892	47.4351	9.5333	-42.2987	36.0206	0.489895	-9.72807	42.6377	28.1123	0.201267	62.9543	7.92333	-47.7828	58.8213	0.270454	-12.795	59.0996	28.1612	-3.73939	73.8018	59.2098	-69.3358	69.75	80.9585	-69.3065	95.2392	95.4757	-51.9931	61.3286	
455	3.79167	102.166	-9.27351	58.4388	85.4111	10.6997	34.4694	57.3796	18.6484	13.2292	29.8749	16.4349	7.93647	40.3689	-38.0371	4.25118	18.2443	-17.5867	0.824694	25.7004	8.56974	22.0256	21.4798	-40.9933	19.5567	4.63815	-9.85293	22.604	31.8851	7.2532	52.142	8.74184	-42.1793	37.0034	-1.75023	-12.8622	44.0758	28.5535	0.367688	65.3758	4.54156	-44.5238	57.8923	0.543326	-13.5168	59.1352	29.4612	-4.34713	77.9503	59.2734	-67.6854	66.2586	86.0564	-68.452	95.9212	93.625	-53.2847	57.3541	
456	3.8	101.588	-9.93686	56.5229	87.4478	11.8852	35.5066	58.3841	20.2238	11.9417	31.8171	18.4948	7.03832	43.2523	-36.347	4.71375	17.9106	-16.0235	-0.761138	28.3097	10.8464	25.2339	21.8205	-37.9622	17.1104	4.90454	-8.36319	24.0289	29.878	9.18581	50.9277	9.85306	-42.4624	37.3515	-1.41004	-11.2134	44.9945	25.7869	1.72718	62.6978	4.86862	-43.7071	56.3899	-1.62161	-15.2633	60.2786	26.2636	-2.40939	74.5197	62.1632	-67.4552	70.041	82.3264	-67.2398	95.6362	95.2496	-50.2535	59.2156	
457	3.80833	103.247	-9.42707	58.8982	89.85	12.3223	33.948	61.2013	20.1577	15.2479	36.056	20.214	9.53694	44.1588	-37.4202	6.6134	16.0651	-14.9651	1.7814	24.9604	7.98275	26.8365	19.2408	-39.3803	18.7007	3.78811	-6.50333	27.3002	30.2696	9.64978	52.1382	8.8559	-41.2706	35.1625	-0.418479	-10.461	40.7482	24.5584	1.73377	64.141	5.35	-47.4202	60.7059	-0.235477	-13.8701	59.2612	21.5189	-1.19802	77.5807	59.642	-68.6598	67.538	82.5127	-67.5959	94.9598	94.3222	-52.3043	56.6892	
458	3.81667	103.605	-9.32397	55.8205	90.6212	13.8749	35.3283	60.8996	21.1053	16.1146	35.5048	20.1143	9.36889	43.2619	-36.6991	5.06228	18.9061	-16.9068	-1.91887	24.9609	9.38316	27.3297	22.0393	-39.6562	17.6242	3.48862	-8.22682	21.5838	27.5808	9.22778	52.0978	8.71413	-44.2053	36.9316	-4.58861	-11.0127	45.3906	20.1118	3.13356	60.5899	2.40509	-48.0742	58.8611	-4.94115	-16.3582	60.4661	19.7072	-3.37251	72.9795	61.3063	-67.932	69.3354	81.8461	-70.3421	91.3866	94.9152	-50.4926	56.0079	
459	3.825	103.05	-7.868	64.378	87.1109	13.5936	37.3621	63.2956	28.4689	17.4116	31.8078	23.1792	9.9014	41.6105	-36.1901	6.75143	17.269	-12.7534	-0.297877	23.5004	10.3425	27.1914	24.2744	-38.9011	14.9593	2.04358	-8.63297	23.7482	24.1601	9.28942	51.5734	9.55347	-44.8088	36.3215	-5.73112	-16.1643	41.1656	18.9125	1.08252	65.1729	5.30607	-52.3723	60.8487	-6.36388	-18.4352	62.1478	18.8631	-1.27972	75.0762	61.3485	-67.4851	65.1781	84.6431	-69.0524	96.2636	94.3345	-49.0796	57.9671	
460	3.83333	100.368	-3.44423	60.1809	85.6254	20.1198	39.7501	59.5701	29.1709	24.1675	28.6064	26.1206	13.8882	45.3322	-33.0043	7.30567	14.6416	-14.3268	1.53924	18.4107	9.20259	29.0557	21.1036	-41.1507	16.7609	-0.399159	-10.4418	22.1414	17.2297	7.19594	53.7987	9.1136	-44.2531	32.9958	-7.82949	-22.2717	40.661	13.8988	-2.3435	66.6531	6.01972	-55.101	60.1559	-8.4469	-24.1972	58.8814	10.6567	-6.47416	75.7499	62.2463	-66.9198	65.1526	84.7093	-67.5441	93.5917	97.9612	-44.014	60.8858	
